<svg width="40" height="58" viewBox="0 0 40 58" fill="none" xmlns="http://www.w3.org/2000/svg">
<path d="M19.4166 0.905151C30.3964 0.905151 39.0659 9.94812 39.0659 21.1015C39.0659 32.2549 30.0483 41.2978 19.0685 41.2978C18.9587 41.2978 18.793 41.2827 18.6832 41.2808C23.0244 44.7925 28.4771 46.9085 34.4454 46.9085C37.1913 46.9085 39.401 49.1702 39.401 51.9576C39.401 54.745 37.6344 57.0067 34.8885 57.0067C15.3993 57.0048 3.05176e-05 40.8988 3.05176e-05 21.1015C3.05176e-05 21.0977 3.05176e-05 21.0939 3.05176e-05 21.0883C3.05176e-05 9.94055 8.44058 0.905151 19.4166 0.905151Z" fill="black"/>
</svg>
